<?xml version="1.0" encoding="UTF-8" standalone="no"?>
<!DOCTYPE svg PUBLIC "-//W3C//DTD SVG 1.1//EN" "http://www.w3.org/Graphics/SVG/1.1/DTD/svg11.dtd">
<svg xmlns="http://www.w3.org/2000/svg" xmlns:xlink="http://www.w3.org/1999/xlink" version="1.1" width="90.792pt" height="87.947pt" viewBox="0 0 90.792 87.947">
<g enable-background="new">
<path transform="matrix(1,0,0,-1,80.431,20.269997)" d="M -9.96277 -7.47208 L 9.96278 -7.47208 L 9.96278 7.4720699 L -9.96277 7.4720699 Z " fill="#ffffff"/>
<clipPath id="cp0">
<path transform="matrix(1,0,0,-1,80.431,20.269997)" d="M -9.96277 -7.47208 L 9.96278 -7.47208 L 9.96278 7.4720699 L -9.96277 7.4720699 Z "/>
</clipPath>
<g clip-path="url(#cp0)">
<path transform="matrix(1,0,0,-1,80.431,20.269997)" stroke-width=".79701" stroke-linecap="butt" stroke-miterlimit="10" stroke-linejoin="miter" fill="none" stroke="#000000" d="M -7.12793 -.66869 C -3.55443 3.58995 3.55443 3.58995 7.12793 -.66869 "/>
<path transform="matrix(1,0,0,-1,80.431,20.269997)" stroke-width=".79701" stroke-linecap="butt" stroke-miterlimit="10" stroke-linejoin="miter" fill="none" stroke="#000000" d="M 0 -4.63722 L 6.10446 2.02031 "/>
<path transform="matrix(.67581,-.737,-.737,-.67581,86.535449,18.249688)" d="M 1.92412 0 C 1.68782 .06175 .64917 .41174 0 .79262 L 0 -.79262 C .64917 -.41174 1.68782 -.06175 1.92412 0 Z "/>
<path transform="matrix(.67581,-.737,-.737,-.67581,86.535449,18.249688)" stroke-width=".78903" stroke-linecap="butt" stroke-miterlimit="10" stroke-linejoin="miter" fill="none" stroke="#000000" d="M 1.92412 0 C 1.68782 .06175 .64917 .41174 0 .79262 L 0 -.79262 C .64917 -.41174 1.68782 -.06175 1.92412 0 Z "/>
</g>
<path transform="matrix(1,0,0,-1,80.431,20.269997)" stroke-width=".79701" stroke-linecap="butt" stroke-miterlimit="10" stroke-linejoin="miter" fill="none" stroke="#000000" d="M -9.96277 -7.47208 L 9.96278 -7.47208 L 9.96278 7.4720699 L -9.96277 7.4720699 Z "/>
<text xml:space="preserve" transform="matrix(1 0 -0 1 0 87.94699)" font-size="9.9626" font-family="CMSY10" font-style="italic"><tspan y="-80.475" x="74.12">|</tspan></text>
<text xml:space="preserve" transform="matrix(1 0 -0 1 0 87.94699)" font-size="9.9626" font-family="CMMI10" font-style="italic"><tspan y="-80.475" x="76.887">n</tspan></text>
<text xml:space="preserve" transform="matrix(1 0 -0 1 0 87.94699)" font-size="9.9626" font-family="CMSY10" font-style="italic"><tspan y="-80.475" x="82.867008">&#x27e9;</tspan></text>
<path transform="matrix(1,0,0,-1,80.431,62.582998)" d="M -9.96277 -7.47208 L 9.96278 -7.47208 L 9.96278 7.4720699 L -9.96277 7.4720699 Z " fill="#ffffff"/>
<clipPath id="cp1">
<path transform="matrix(1,0,0,-1,80.431,62.582998)" d="M -9.96277 -7.47208 L 9.96278 -7.47208 L 9.96278 7.4720699 L -9.96277 7.4720699 Z "/>
</clipPath>
<g clip-path="url(#cp1)">
<path transform="matrix(1,0,0,-1,80.431,62.582998)" stroke-width=".79701" stroke-linecap="butt" stroke-miterlimit="10" stroke-linejoin="miter" fill="none" stroke="#000000" d="M -7.12793 -.66869 C -3.55443 3.58995 3.55443 3.58995 7.12793 -.66869 "/>
<path transform="matrix(1,0,0,-1,80.431,62.582998)" stroke-width=".79701" stroke-linecap="butt" stroke-miterlimit="10" stroke-linejoin="miter" fill="none" stroke="#000000" d="M 0 -4.63722 L 6.10446 2.02031 "/>
<path transform="matrix(.67581,-.737,-.737,-.67581,86.535449,60.562688)" d="M 1.92412 0 C 1.68782 .06175 .64917 .41174 0 .79262 L 0 -.79262 C .64917 -.41174 1.68782 -.06175 1.92412 0 Z "/>
<path transform="matrix(.67581,-.737,-.737,-.67581,86.535449,60.562688)" stroke-width=".78903" stroke-linecap="butt" stroke-miterlimit="10" stroke-linejoin="miter" fill="none" stroke="#000000" d="M 1.92412 0 C 1.68782 .06175 .64917 .41174 0 .79262 L 0 -.79262 C .64917 -.41174 1.68782 -.06175 1.92412 0 Z "/>
</g>
<path transform="matrix(1,0,0,-1,80.431,62.582998)" stroke-width=".79701" stroke-linecap="butt" stroke-miterlimit="10" stroke-linejoin="miter" fill="none" stroke="#000000" d="M -9.96277 -7.47208 L 9.96278 -7.47208 L 9.96278 7.4720699 L -9.96277 7.4720699 Z "/>
<text xml:space="preserve" transform="matrix(1 0 -0 1 0 87.94699)" font-size="9.9626" font-family="CMSY10" font-style="italic"><tspan y="-38.162" x="74.12">|</tspan></text>
<text xml:space="preserve" transform="matrix(1 0 -0 1 0 87.94699)" font-size="9.9626" font-family="CMMI10" font-style="italic"><tspan y="-38.162" x="76.887">n</tspan></text>
<text xml:space="preserve" transform="matrix(1 0 -0 1 0 87.94699)" font-size="9.9626" font-family="CMSY10" font-style="italic"><tspan y="-38.162" x="82.867008">&#x27e9;</tspan></text>
<path transform="matrix(1,0,0,-1,58.244,42.313)" stroke-width=".79701" stroke-linecap="butt" stroke-miterlimit="10" stroke-linejoin="miter" fill="none" stroke="#000000" d="M -18.37473 22.04398 L -32.54813 22.04398 "/>
<path transform="matrix(1,0,0,-1,58.244,42.313)" stroke-width=".79701" stroke-linecap="butt" stroke-miterlimit="10" stroke-linejoin="miter" fill="none" stroke="#000000" d="M -18.37473 -20.26968 L -32.54813 -20.26968 "/>
<path transform="matrix(1,0,0,-1,58.244,42.313)" stroke-width=".79701" stroke-linecap="butt" stroke-miterlimit="10" stroke-linejoin="miter" fill="none" stroke="#000000" d="M 12.22406 22.04398 L -2.34782 22.04398 "/>
<path transform="matrix(1,0,0,-1,58.244,42.313)" stroke-width=".79701" stroke-linecap="butt" stroke-miterlimit="10" stroke-linejoin="miter" fill="none" stroke="#000000" d="M 12.22406 -20.26968 L -2.34782 -20.26968 "/>
<text xml:space="preserve" transform="matrix(1 0 -0 1 -.00000166893 87.947)" font-size="9.9626" font-family="CMSY10" font-style="italic"><tspan y="-65.436" x="3.892">|</tspan></text>
<text xml:space="preserve" transform="matrix(1 0 -0 1 -.00000166893 87.947)" font-size="9.9626" font-family="CMR10"><tspan y="-65.436" x="6.66">1</tspan></text>
<text xml:space="preserve" transform="matrix(1 0 -0 1 -.00000166893 87.947)" font-size="9.9626" font-family="CMSY10" font-style="italic"><tspan y="-65.436" x="11.641">&#x27e9;</tspan></text>
<text xml:space="preserve" transform="matrix(1 0 -0 1 -.00000166893 87.947)" font-size="6.9738" font-family="CMMI7" font-style="italic"><tspan y="-62.447" x="15.514999">L</tspan></text>
<path transform="matrix(1,0,0,-1,58.244,42.313)" d="M -18.37473 -27.65874 L -2.3478394 -27.65874 L -2.3478394 29.433012 L -18.37473 29.433012 Z " fill="#ffffff"/>
<path transform="matrix(1,0,0,-1,58.244,42.313)" stroke-width=".79701" stroke-linecap="butt" stroke-miterlimit="10" stroke-linejoin="miter" fill="none" stroke="#000000" d="M -18.37473 -27.65874 L -2.3478394 -27.65874 L -2.3478394 29.433012 L -18.37473 29.433012 Z "/>
<text xml:space="preserve" transform="matrix(1 0 -0 1 0 87.947)" font-size="9.9626" font-family="CMMI10" font-style="italic"><tspan y="-43.117" x="43.855">B</tspan></text>
<text xml:space="preserve" transform="matrix(1 0 -0 1 -.00000023841859 87.947)" font-size="9.9626" font-family="CMSY10" font-style="italic"><tspan y="-23.123" x="3.32">|</tspan></text>
<text xml:space="preserve" transform="matrix(1 0 -0 1 -.00000023841859 87.947)" font-size="9.9626" font-family="CMR10"><tspan y="-23.123" x="6.088">0</tspan></text>
<text xml:space="preserve" transform="matrix(1 0 -0 1 -.00000023841859 87.947)" font-size="9.9626" font-family="CMSY10" font-style="italic"><tspan y="-23.123" x="11.069">&#x27e9;</tspan></text>
<text xml:space="preserve" transform="matrix(1 0 -0 1 -.00000023841859 87.947)" font-size="6.9738" font-family="CMMI7" font-style="italic"><tspan y="-20.133999" x="14.944">R</tspan></text>
</g>
</svg>
