<?xml version="1.0" encoding="utf-8"?>
<!-- Generator: Adobe Illustrator 24.3.0, SVG Export Plug-In . SVG Version: 6.00 Build 0)  -->
<svg version="1.1" id="Ebene_1" xmlns="http://www.w3.org/2000/svg" xmlns:xlink="http://www.w3.org/1999/xlink" x="0px" y="0px"
	 viewBox="0 0 217.57 47.28" style="enable-background:new 0 0 217.57 47.28;" xml:space="preserve">
<style type="text/css">
	.st0{fill:none;stroke:#000000;stroke-miterlimit:10;}
	.st1{fill:#36A9E1;}
	.st2{fill:#1D71B8;}
	.st3{fill:none;stroke:#1D71B8;stroke-miterlimit:10;}
	.st4{clip-path:url(#SVGID_2_);}
	.st5{fill:#008D36;}
	.st6{clip-path:url(#SVGID_4_);}
</style>
<line class="st0" x1="72.38" y1="14.23" x2="133.89" y2="13.81"/>
<rect x="77.31" y="7.95" class="st1" width="23.01" height="12.13"/>
<path class="st2" d="M148.55,18.9h10.42c0-5.72-4.71-10.42-10.42-10.42c-5.72,0-10.42,4.71-10.42,10.42c0,0.01,0,0.03,0,0.04
	L148.55,18.9z"/>
<g>
	<g>
		<line class="st3" x1="148.55" y1="13.71" x2="156.87" y2="6.79"/>
		<g>
			<path class="st2" d="M161.51,2.93c-1.51,2.63-3.07,6.26-3.53,9.12l-1.72-4.76l-4.36-2.55C154.79,4.81,158.65,3.94,161.51,2.93z"
				/>
		</g>
	</g>
</g>
<line class="st0" x1="72.98" y1="35.98" x2="134.48" y2="35.56"/>
<rect x="77.9" y="29.71" class="st1" width="23.01" height="12.13"/>
<g>
	<defs>
		<rect id="SVGID_1_" x="57.99" y="29.71" width="12" height="13"/>
	</defs>
	<clipPath id="SVGID_2_">
		<use xlink:href="#SVGID_1_"  style="overflow:visible;"/>
	</clipPath>
	<path class="st4" d="M58.58,30.4c0-0.21,0-0.43-0.24-0.43c-0.24,0-0.24,0.22-0.24,0.43v11.06c0,0.21,0,0.43,0.24,0.43
		c0.24,0,0.24-0.21,0.24-0.43V30.4"/>
	<path class="st4" d="M62.95,38.91c-0.47,0-1.17-0.3-1.38-1.44c-0.13-0.72-0.13-1.81-0.13-2.52c0-0.76,0-1.55,0.1-2.19
		c0.23-1.42,1.12-1.53,1.42-1.53c0.39,0,1.18,0.21,1.41,1.39c0.12,0.67,0.12,1.57,0.12,2.32c0,0.89,0,1.7-0.13,2.47
		C64.17,38.55,63.49,38.91,62.95,38.91 M65.47,35.09c0-0.95-0.06-1.91-0.48-2.79c-0.55-1.14-1.53-1.33-2.03-1.33
		c-0.71,0-1.58,0.31-2.07,1.42c-0.38,0.82-0.44,1.75-0.44,2.71c0,0.89,0.05,1.97,0.54,2.87c0.51,0.97,1.38,1.2,1.97,1.2
		c0.64,0,1.55-0.25,2.07-1.38C65.41,36.96,65.47,36.03,65.47,35.09z"/>
	<path class="st4" d="M69.24,36.13c0.06-0.14,0.06-0.17,0.06-0.2c0-0.04,0-0.06-0.06-0.2l-2.09-5.48c-0.07-0.2-0.14-0.27-0.28-0.27
		s-0.24,0.11-0.24,0.24c0,0.04,0,0.06,0.06,0.19l2.11,5.53l-2.11,5.51c-0.06,0.13-0.06,0.16-0.06,0.22c0,0.13,0.11,0.24,0.24,0.24
		c0.15,0,0.2-0.12,0.25-0.24L69.24,36.13"/>
</g>
<path class="st2" d="M149.14,40.66h10.42c0-5.72-4.71-10.42-10.42-10.42c-5.72,0-10.42,4.71-10.42,10.42c0,0.01,0,0.03,0,0.04
	L149.14,40.66z"/>
<g>
	<g>
		<line class="st3" x1="149.14" y1="35.47" x2="157.46" y2="28.55"/>
		<g>
			<path class="st2" d="M162.1,24.69c-1.51,2.63-3.07,6.26-3.53,9.12l-1.72-4.76l-4.36-2.55C155.38,26.57,159.24,25.69,162.1,24.69z
				"/>
		</g>
	</g>
</g>
<rect x="108.79" y="7.95" class="st5" width="16.74" height="33.89"/>
<g>
	<defs>
		<rect id="SVGID_3_" x="57.49" y="7.78" width="13" height="13"/>
	</defs>
	<clipPath id="SVGID_4_">
		<use xlink:href="#SVGID_3_"  style="overflow:visible;"/>
	</clipPath>
	<path class="st6" d="M58.48,8.47c0-0.21,0-0.43-0.24-0.43C58,8.04,58,8.26,58,8.47v11.06c0,0.21,0,0.43,0.24,0.43
		c0.24,0,0.24-0.21,0.24-0.43V8.47"/>
	<path class="st6" d="M60.93,16.28c-0.04,0.18-0.11,0.45-0.11,0.51c0,0.21,0.17,0.32,0.35,0.32c0.14,0,0.36-0.1,0.44-0.33
		c0.01-0.02,0.15-0.58,0.23-0.88l0.26-1.07c0.07-0.26,0.14-0.52,0.2-0.8c0.05-0.2,0.14-0.55,0.15-0.6c0.18-0.37,0.81-1.45,1.94-1.45
		c0.54,0,0.64,0.44,0.64,0.83c0,0.74-0.58,2.26-0.77,2.78c-0.11,0.28-0.12,0.42-0.12,0.55c0,0.56,0.42,0.98,0.98,0.98
		c1.12,0,1.56-1.74,1.56-1.84c0-0.12-0.11-0.12-0.14-0.12c-0.12,0-0.12,0.04-0.18,0.21c-0.24,0.81-0.63,1.48-1.22,1.48
		c-0.2,0-0.29-0.12-0.29-0.39c0-0.3,0.11-0.58,0.21-0.85c0.23-0.63,0.73-1.94,0.73-2.62c0-0.8-0.51-1.28-1.37-1.28
		c-1.07,0-1.66,0.76-1.86,1.04c-0.06-0.67-0.55-1.04-1.1-1.04c-0.55,0-0.77,0.46-0.89,0.68c-0.19,0.4-0.36,1.11-0.36,1.16
		c0,0.12,0.12,0.12,0.14,0.12c0.12,0,0.13-0.01,0.2-0.27c0.2-0.85,0.44-1.42,0.87-1.42c0.24,0,0.37,0.15,0.37,0.55
		c0,0.25-0.04,0.38-0.19,1L60.93,16.28"/>
	<path class="st6" d="M70.34,14.2c0.06-0.14,0.06-0.17,0.06-0.2c0-0.04,0-0.06-0.06-0.2l-2.09-5.48c-0.07-0.2-0.14-0.28-0.28-0.28
		c-0.13,0-0.24,0.11-0.24,0.24c0,0.04,0,0.06,0.06,0.19L69.91,14l-2.11,5.51c-0.06,0.13-0.06,0.16-0.06,0.22
		c0,0.13,0.11,0.24,0.24,0.24c0.15,0,0.2-0.12,0.25-0.24L70.34,14.2"/>
</g>
</svg>
