<?xml version="1.0" encoding="utf-8"?>
<!-- Generator: Adobe Illustrator 24.3.0, SVG Export Plug-In . SVG Version: 6.00 Build 0)  -->
<svg version="1.1" id="Ebene_1" xmlns="http://www.w3.org/2000/svg" xmlns:xlink="http://www.w3.org/1999/xlink" x="0px" y="0px"
	 viewBox="0 0 113.81 24.69" style="enable-background:new 0 0 113.81 24.69;" xml:space="preserve">
<style type="text/css">
	.st0{fill:none;stroke:#000000;stroke-miterlimit:10;}
	.st1{fill:#36A9E1;}
	.st2{clip-path:url(#SVGID_2_);}
	.st3{fill:#1D71B8;}
	.st4{fill:none;stroke:#1D71B8;stroke-miterlimit:10;}
</style>
<line class="st0" x1="19.25" y1="14.23" x2="80.75" y2="13.81"/>
<rect x="40.17" y="7.95" class="st1" width="23.01" height="12.13"/>
<g>
	<defs>
		<rect id="SVGID_1_" x="4.25" y="7.95" width="12" height="13"/>
	</defs>
	<clipPath id="SVGID_2_">
		<use xlink:href="#SVGID_1_"  style="overflow:visible;"/>
	</clipPath>
	<path class="st2" d="M4.85,8.64c0-0.21,0-0.43-0.24-0.43c-0.24,0-0.24,0.22-0.24,0.43V19.7c0,0.21,0,0.43,0.24,0.43
		c0.24,0,0.24-0.21,0.24-0.43V8.64"/>
	<path class="st2" d="M9.22,17.15c-0.47,0-1.17-0.3-1.38-1.44c-0.13-0.72-0.13-1.81-0.13-2.52c0-0.76,0-1.55,0.1-2.19
		c0.23-1.42,1.12-1.53,1.42-1.53c0.39,0,1.18,0.21,1.41,1.39c0.12,0.67,0.12,1.57,0.12,2.32c0,0.89,0,1.7-0.13,2.47
		C10.44,16.79,9.76,17.15,9.22,17.15 M11.74,13.34c0-0.95-0.06-1.91-0.48-2.79C10.71,9.4,9.74,9.21,9.23,9.21
		c-0.71,0-1.58,0.31-2.07,1.42c-0.38,0.82-0.44,1.75-0.44,2.71c0,0.89,0.05,1.97,0.54,2.87c0.51,0.97,1.38,1.2,1.97,1.2
		c0.64,0,1.55-0.25,2.07-1.38C11.68,15.21,11.74,14.28,11.74,13.34z"/>
	<path class="st2" d="M15.51,14.37c0.06-0.14,0.06-0.17,0.06-0.2c0-0.04,0-0.06-0.06-0.2l-2.09-5.48c-0.07-0.2-0.14-0.28-0.28-0.28
		c-0.13,0-0.24,0.11-0.24,0.24c0,0.04,0,0.06,0.06,0.19l2.11,5.53l-2.11,5.51c-0.06,0.13-0.06,0.16-0.06,0.22
		c0,0.13,0.11,0.24,0.24,0.24c0.15,0,0.2-0.12,0.25-0.24L15.51,14.37"/>
</g>
<path class="st3" d="M95.41,18.9h10.42c0-5.72-4.71-10.42-10.42-10.42S84.99,13.18,84.99,18.9c0,0.01,0,0.03,0,0.04L95.41,18.9z"/>
<g>
	<g>
		<line class="st4" x1="95.41" y1="13.71" x2="103.73" y2="6.79"/>
		<g>
			<path class="st3" d="M108.37,2.93c-1.51,2.63-3.07,6.26-3.53,9.12l-1.72-4.76l-4.36-2.55C101.65,4.81,105.51,3.94,108.37,2.93z"
				/>
		</g>
	</g>
</g>
</svg>
